<?xml version="1.0" encoding="utf-8"?><!-- Uploaded to: SVG Repo, www.svgrepo.com, Generator: SVG Repo Mixer Tools -->
<svg fill="#000000" width="800px" height="800px" viewBox="0 0 1024 1024" xmlns="http://www.w3.org/2000/svg"><path d="M85.333 512C85.333 276.358 276.358 85.333 512 85.333c235.639 0 426.667 191.025 426.667 426.667 0 235.639-191.027 426.667-426.667 426.667C276.358 938.667 85.333 747.64 85.333 512zM512 128c-212.077 0-384 171.923-384 384 0 142.135 77.222 266.231 192 332.629V628.62c0-77.474 45.885-144.23 111.962-174.575-38.129-25.737-63.201-69.344-63.201-118.808 0-79.108 64.131-143.238 143.24-143.238s143.236 64.13 143.236 143.238c0 49.463-25.071 93.071-63.202 118.808 66.078 30.345 111.966 97.101 111.966 174.575v216.009c114.778-66.398 192-190.494 192-332.629 0-212.077-171.921-384-384-384zm149.333 737.882V628.621c0-82.475-66.859-149.333-149.333-149.333s-149.333 66.859-149.333 149.333v237.261C408.572 885.278 459.034 896 512 896s103.428-10.722 149.333-30.118zM512 234.667c-55.543 0-100.573 45.027-100.573 100.571S456.457 435.81 512 435.81c55.543 0 100.57-45.028 100.57-100.572S567.544 234.667 512 234.667z"/></svg>