<svg xmlns="http://www.w3.org/2000/svg" viewBox="1.00042 -0.7 29.71 33.7">
	<path d="m5.7 1.3 3 3-.66.72a12 12 0 0 0 16.95 16.94l.72-.67 3 3-1.42 1.42-1.67-1.68A13.94 13.94 0 0 1 18 26.96V29h3v2h-8v-2h3v-2.04a13.95 13.95 0 0 1-8.92-4.08 14 14 0 0 1-1.11-18.5L4.29 2.71zm18.18 4.44.21.21.21.22a10 10 0 1 1-.64-.63zm-9.34 11.13-2.45 2.45a8 8 0 0 0 8.04 1.05 16.7 16.7 0 0 1-5.59-3.5zm4.91-4.91-3.5 3.5c2.85 2.54 6.08 3.82 6.7 3.2.63-.61-.66-3.85-3.2-6.7zm-9.81-2.1-.08.19a8 8 0 0 0 1.12 7.86l2.45-2.45a16.68 16.68 0 0 1-3.5-5.6zM23.32 8.1l-2.45 2.44a16.73 16.73 0 0 1 3.5 5.6 8 8 0 0 0-1.05-8.05zm-11.98-.76c-.62.62.66 3.86 3.2 6.7l3.5-3.5c-2.85-2.54-6.07-3.82-6.7-3.2zm2.54-1.7c1.75.59 3.75 1.83 5.58 3.49l2.44-2.45a8.03 8.03 0 0 0-8.02-1.04z" stroke="none" stroke-width="1" fill="#000000"/>
</svg>